<?xml version="1.0" standalone="no"?>
<!DOCTYPE svg PUBLIC "-//W3C//DTD SVG 20010904//EN"
 "http://www.w3.org/TR/2001/REC-SVG-20010904/DTD/svg10.dtd">
<svg version="1.0" xmlns="http://www.w3.org/2000/svg"
 width="517.000000pt" height="517.000000pt" viewBox="0 0 517.000000 517.000000"
 preserveAspectRatio="xMidYMid meet">

<g transform="translate(0.000000,517.000000) scale(0.100000,-0.100000)"
fill="#000000" stroke="none">
<path d="M2504 4896 c-29 -13 -89 -46 -135 -74 -46 -28 -118 -60 -159 -72
-123 -36 -251 -80 -320 -112 -64 -30 -66 -30 -227 -29 -143 2 -166 0 -200 -17
-43 -22 -129 -109 -190 -193 -23 -32 -74 -80 -115 -110 -94 -68 -180 -150
-281 -269 -45 -52 -128 -144 -185 -203 -109 -115 -146 -175 -158 -257 -3 -25
-13 -83 -21 -130 -29 -168 -35 -228 -44 -460 -5 -129 -12 -272 -15 -318 l-6
-83 50 -102 c140 -285 384 -539 702 -731 77 -47 105 -71 148 -127 51 -66 58
-71 185 -132 73 -36 151 -78 174 -96 42 -31 107 -104 211 -240 31 -40 71 -91
87 -112 126 -158 193 -254 222 -316 18 -39 33 -77 33 -84 0 -38 49 -165 88
-229 83 -134 212 -309 235 -316 29 -9 65 33 192 222 90 134 102 159 132 259
55 183 68 203 332 540 205 261 238 291 411 369 109 49 130 65 195 144 41 48
80 81 157 129 57 35 137 90 178 121 103 78 269 241 345 337 66 85 156 235 193
322 25 58 30 153 11 200 -8 18 -11 87 -10 188 1 162 -10 301 -35 431 -8 40
-21 120 -29 180 -19 134 -35 163 -170 303 -56 58 -145 156 -197 216 -96 111
-164 175 -271 254 -31 24 -80 73 -109 110 -62 79 -152 167 -191 188 -23 11
-64 14 -190 12 l-162 -2 -100 42 c-55 23 -158 60 -230 82 -90 28 -155 56 -213
90 -174 105 -227 118 -318 75z m-115 -300 c33 -18 94 -83 115 -125 11 -20 16
-57 16 -113 l-1 -83 -87 -62 c-48 -35 -97 -63 -110 -63 -13 0 -49 16 -80 37
-64 41 -206 109 -297 142 -61 23 -85 37 -85 51 0 17 95 112 124 124 108 45
304 104 349 105 15 1 40 -5 56 -13z m576 -12 c224 -64 297 -102 339 -177 20
-36 20 -38 3 -51 -10 -8 -42 -22 -70 -31 -66 -21 -257 -112 -321 -153 -57 -36
-51 -38 -168 46 l-78 55 0 84 c0 90 10 120 61 182 37 46 78 71 114 71 17 0 71
-12 120 -26z m-1279 -132 c11 -6 9 -16 -12 -57 -15 -28 -34 -58 -43 -68 -20
-23 -75 -47 -109 -47 -35 0 -102 31 -102 47 0 38 74 125 115 136 26 7 132 -1
151 -11z m1984 0 c42 -21 102 -97 98 -124 -2 -13 -17 -25 -43 -34 -84 -29
-127 -13 -189 68 -48 62 -51 90 -11 99 55 12 110 9 145 -9z m-1767 -268 c121
-46 271 -120 308 -151 24 -21 29 -32 29 -71 1 -70 25 -159 54 -197 14 -18 26
-41 26 -50 0 -9 -35 -80 -77 -157 -42 -78 -96 -182 -120 -232 -23 -50 -54
-100 -68 -111 -36 -28 -88 -24 -165 12 -36 17 -104 47 -152 68 -48 20 -92 42
-97 49 -6 6 -13 54 -17 106 -4 52 -13 106 -20 120 -7 14 -40 52 -73 85 -70 68
-71 74 -41 185 51 185 81 260 116 288 54 44 147 92 177 92 15 0 69 -16 120
-36z m1609 -9 c42 -25 84 -55 93 -67 19 -27 87 -237 105 -326 l13 -63 -73 -74
c-80 -80 -78 -75 -96 -242 l-7 -62 -64 -30 c-35 -17 -66 -31 -69 -31 -2 0 -44
-18 -92 -41 -110 -51 -131 -55 -176 -34 -33 16 -44 33 -105 159 -38 77 -94
185 -125 240 -31 54 -56 102 -56 107 0 4 14 30 31 58 23 37 35 75 48 150 10
56 20 103 22 105 46 44 384 194 439 195 25 1 59 -13 112 -44z m-2142 -15 c57
-16 66 -25 52 -52 -16 -32 -79 -254 -87 -309 -4 -25 -10 -50 -13 -56 -4 -5
-45 -30 -92 -55 -47 -25 -109 -60 -138 -77 l-52 -33 -43 25 c-62 37 -79 60
-85 117 -8 88 14 125 167 279 168 168 201 187 291 161z m2586 -21 c51 -33 237
-216 285 -283 26 -34 29 -48 29 -111 0 -77 -6 -91 -59 -130 -46 -33 -72 -32
-140 9 -31 18 -87 51 -126 71 -38 21 -73 43 -77 48 -3 6 -12 40 -19 76 -10 55
-62 238 -83 291 -9 24 9 42 50 50 69 14 89 10 140 -21z m-1293 -29 c26 -16 67
-48 92 -71 43 -40 45 -44 45 -100 0 -50 -4 -61 -30 -87 -50 -51 -157 -122
-183 -122 -25 0 -95 48 -159 109 -37 34 -38 38 -38 102 0 56 4 70 23 88 45 43
153 110 178 110 14 1 46 -12 72 -29z m-1250 -552 c74 -52 77 -57 77 -123 0
-85 -14 -120 -64 -154 -108 -74 -169 -87 -235 -50 -39 22 -52 44 -71 124 -21
87 15 134 165 214 46 25 80 22 128 -11z m1268 22 c27 -2 224 -400 274 -556 9
-27 20 -58 24 -69 25 -59 107 -370 130 -495 5 -30 15 -83 22 -117 16 -84 7
-224 -18 -295 -25 -68 -62 -123 -138 -202 -31 -33 -64 -74 -72 -90 -21 -41
-21 -149 1 -200 20 -48 42 -65 81 -66 25 0 44 15 114 87 46 49 112 126 148
173 146 194 166 303 113 620 -20 118 -87 391 -114 469 -21 59 -20 83 6 111 17
19 129 76 253 129 11 5 37 16 58 26 21 9 60 23 86 31 48 14 49 14 134 -26 71
-34 95 -40 149 -40 57 0 66 -3 77 -23 16 -31 4 -74 -52 -187 l-42 -85 -80 -5
c-116 -8 -213 -53 -274 -127 -42 -51 -94 -186 -94 -243 0 -28 13 -77 34 -130
31 -76 39 -87 74 -103 22 -11 48 -24 58 -29 40 -20 143 -21 203 -2 114 35 168
77 236 181 23 35 46 63 52 64 6 1 67 0 136 -1 182 -2 186 -10 65 -150 -175
-205 -451 -386 -750 -494 -55 -20 -127 -49 -160 -66 -78 -39 -202 -158 -341
-329 -60 -74 -131 -162 -159 -195 -159 -195 -261 -327 -287 -373 -17 -29 -33
-53 -37 -53 -4 0 -17 20 -29 44 -11 25 -69 105 -128 178 -423 524 -525 641
-618 702 -28 18 -109 55 -181 81 -320 117 -589 295 -788 521 -43 48 -77 90
-77 94 0 3 6 13 13 22 10 13 38 17 146 20 l135 3 53 -75 c77 -110 115 -139
231 -176 70 -22 159 -15 233 19 67 31 70 34 104 117 48 114 31 236 -51 359
-53 81 -176 141 -290 141 -47 0 -65 4 -78 19 -28 31 -96 198 -96 235 0 41 11
46 91 46 49 0 75 7 147 41 l87 40 84 -31 c180 -69 338 -147 363 -182 17 -21
17 -26 2 -73 -18 -58 -23 -74 -58 -209 -37 -141 -64 -280 -81 -422 -17 -136
-11 -212 25 -306 34 -89 137 -229 273 -370 69 -73 100 -84 144 -53 43 30 68
173 43 241 -6 15 -44 63 -86 106 -53 58 -86 103 -114 162 l-40 82 0 136 c0 74
4 148 9 164 5 16 14 61 21 99 18 105 101 407 130 480 5 11 25 65 46 120 41
110 190 410 229 461 l24 31 83 -3 c46 -2 86 -3 89 -4z m1234 -14 c129 -72 151
-99 149 -180 -2 -102 -63 -176 -146 -176 -74 0 -199 91 -218 158 -23 85 -7
136 57 177 83 53 96 55 158 21z m-2976 -127 c19 -7 33 -19 35 -32 2 -12 12
-62 22 -112 34 -173 38 -157 -65 -271 -50 -54 -117 -134 -148 -176 -32 -42
-63 -77 -70 -78 -17 0 -49 49 -62 95 -15 53 -14 331 1 413 13 69 43 111 112
153 35 22 124 26 175 8z m3498 -18 c64 -47 89 -87 102 -168 14 -91 14 -325 0
-378 -11 -41 -53 -105 -69 -105 -5 0 -36 35 -68 78 -33 42 -101 124 -152 181
-105 119 -100 93 -57 286 28 129 34 135 138 135 57 0 71 -4 106 -29z m-141
-677 c39 -54 48 -76 52 -119 6 -74 -14 -87 -134 -83 l-89 3 -37 65 c-21 36
-38 71 -38 79 0 8 21 64 48 124 l47 108 52 -55 c28 -30 73 -85 99 -122z
m-3203 57 c31 -73 44 -116 39 -128 -12 -31 -65 -118 -77 -125 -15 -11 -159
-10 -188 1 -53 20 -39 113 30 204 81 107 124 157 137 157 6 0 33 -49 59 -109z
m331 -188 c72 -19 92 -34 116 -88 44 -96 45 -108 20 -170 -26 -64 -48 -82
-111 -91 -97 -13 -182 38 -232 140 -15 30 -27 60 -27 66 0 16 49 91 83 128 36
37 61 40 151 15z m2483 -5 c31 -34 83 -123 83 -142 0 -28 -48 -113 -84 -150
-35 -34 -99 -56 -164 -56 -58 0 -132 82 -132 146 0 35 35 130 59 158 32 37
102 62 182 65 25 1 42 -6 56 -21z"/>
<path d="M2145 2445 c-46 -45 -32 -89 61 -196 271 -310 270 -309 372 -316 101
-7 129 12 304 208 81 90 157 183 170 206 22 40 22 43 5 77 -11 23 -26 38 -43
42 -23 6 -33 1 -67 -37 -77 -84 -122 -135 -202 -224 -107 -120 -100 -114 -130
-125 -30 -12 -68 4 -99 42 -11 13 -65 73 -121 133 -55 61 -120 134 -144 163
-49 58 -70 64 -106 27z"/>
<path d="M2550 1663 c-30 -19 -167 -169 -186 -203 -7 -14 -13 -51 -14 -83 0
-48 5 -66 29 -100 43 -64 187 -197 212 -197 13 0 54 32 107 83 190 184 191
243 5 435 -85 87 -105 96 -153 65z"/>
</g>
</svg>
